<svg id="b78b5ecc-31f0-4733-ae35-76ee3305bf1d" data-name="Capa 1" xmlns="http://www.w3.org/2000/svg" viewBox="0 0 539.01 85.28"><style>
.b2e1effd-f311-43bd-a210-88c83460ea52{fill:#0d6639;}
.b2e1effd-f311-43bd-a210-88c83460ea52,.b6a08244-b9ec-4465-9907-1d9962363ea2,.ea423a78-064f-47bd-8682-cd17186df6b5,.fb736342-a22b-44ea-9ec3-6b3e7286bd6c{fill-rule:evenodd;}
.b6a08244-b9ec-4465-9907-1d9962363ea2{fill:#fde600;}
.ea423a78-064f-47bd-8682-cd17186df6b5{fill:#e3161e;}
.fb736342-a22b-44ea-9ec3-6b3e7286bd6c{fill:#2b2523;}
</style><polygon class="b2e1effd-f311-43bd-a210-88c83460ea52" points="196.23 12.56 141.43 12.56 138.28 24.45 156.99 24.45 144.7 69.05 162.22 69.05 174.38 24.45 192.95 24.45 196.23 12.56"></polygon><polygon class="b2e1effd-f311-43bd-a210-88c83460ea52" points="299.82 12.56 283.46 12.56 275.35 44.07 233.24 10.72 218.33 69.05 234.68 69.05 242.66 37.53 284.9 70.89 299.82 12.56"></polygon><polygon class="b2e1effd-f311-43bd-a210-88c83460ea52" points="310.41 12.56 327.93 12.56 312.5 69.05 294.97 69.05 310.41 12.56"></polygon><polygon class="b2e1effd-f311-43bd-a210-88c83460ea52" points="364.55 69.05 342.32 40.8 379.21 12.56 357.75 12.56 321.13 40.68 320.74 40.93 320.88 40.93 322.17 42.63 343.1 69.05 364.55 69.05"></polygon><polygon class="b2e1effd-f311-43bd-a210-88c83460ea52" points="404.71 9.93 403.14 11.51 344.81 69.05 364.42 69.05 397.38 36.49 402.74 47.73 391.89 48.12 379.86 60.03 408.24 59.63 412.56 69.05 432.3 69.05 404.71 9.93"></polygon><polygon class="b2e1effd-f311-43bd-a210-88c83460ea52" points="92.05 9.93 90.48 11.51 32.15 69.05 51.76 69.05 84.72 36.49 90.09 47.73 79.23 48.12 67.21 60.03 95.58 59.63 99.9 69.05 119.65 69.05 92.05 9.93"></polygon><polygon class="b2e1effd-f311-43bd-a210-88c83460ea52" points="200.93 28.24 218.46 28.24 207.21 69.05 189.82 69.05 200.93 28.24"></polygon><polygon class="b2e1effd-f311-43bd-a210-88c83460ea52" points="15.08 9.93 32.61 9.93 17.39 69.05 0 69.05 15.08 9.93"></polygon><polygon class="b2e1effd-f311-43bd-a210-88c83460ea52" points="205.25 12.56 222.78 12.56 219.51 24.33 201.98 24.33 205.25 12.56"></polygon><polygon class="b2e1effd-f311-43bd-a210-88c83460ea52" points="444.84 42.63 444.84 42.63 444.97 40.41 445.1 38.31 445.36 36.22 445.76 34.14 446.28 32.04 446.81 29.95 447.46 27.99 448.25 26.03 449.16 24.19 450.07 22.37 451.12 20.53 452.17 18.83 453.34 17.12 454.65 15.56 455.96 13.99 457.4 12.56 458.84 11.12 460.4 9.81 461.98 8.5 463.67 7.32 465.37 6.28 467.21 5.24 469.04 4.31 470.87 3.4 472.83 2.61 474.8 1.96 476.89 1.44 478.98 0.91 481.07 0.52 483.17 0.26 485.26 0.13 487.48 0 489.7 0.13 491.92 0.26 494.02 0.52 496.11 0.91 498.21 1.44 500.17 1.96 502.13 2.61 504.09 3.4 505.92 4.31 507.75 5.24 509.58 6.28 511.29 7.32 512.99 8.5 514.55 9.81 516.12 11.12 517.69 12.56 519 13.99 520.44 15.56 521.62 17.12 522.79 18.83 523.97 20.53 525.01 22.37 525.93 24.19 526.72 26.03 527.5 27.99 528.15 29.95 528.81 32.04 529.2 34.14 529.59 36.22 529.86 38.31 530.12 40.41 530.12 42.63 530.12 44.86 529.86 47.08 529.59 49.17 529.2 51.26 528.81 53.35 528.15 55.32 527.5 57.28 526.72 59.24 525.93 61.08 525.01 63.03 523.97 64.74 522.79 66.44 521.62 68.15 520.44 69.71 519 71.28 517.69 72.85 516.12 74.15 514.55 75.6 512.99 76.78 511.29 77.95 509.58 79.13 507.75 80.17 505.92 81.1 504.09 81.88 502.13 82.66 500.17 83.32 498.21 83.97 496.11 84.37 494.02 84.75 491.92 85.02 489.7 85.28 487.48 85.28 485.26 85.28 483.17 85.02 481.07 84.75 478.98 84.37 476.89 83.97 474.8 83.32 472.83 82.66 470.87 81.88 469.04 81.1 467.21 80.17 465.37 79.13 463.67 77.95 461.98 76.78 460.4 75.6 458.84 74.15 457.4 72.85 455.96 71.28 454.65 69.71 453.34 68.15 452.17 66.44 451.12 64.74 450.07 63.03 449.16 61.08 448.25 59.24 447.46 57.28 446.81 55.32 446.28 53.35 445.76 51.26 445.36 49.17 445.1 47.08 444.97 44.86 444.84 42.63"></polygon><polygon class="b6a08244-b9ec-4465-9907-1d9962363ea2" points="453.61 42.63 453.61 42.63 453.74 40.93 453.87 39.23 454 37.53 454.26 35.84 454.65 34.14 455.18 32.57 455.7 31 456.35 29.43 457.01 27.99 457.66 26.55 458.57 25.11 459.37 23.68 461.32 21.05 463.55 18.7 465.9 16.48 468.51 14.52 469.95 13.73 471.39 12.81 472.83 12.16 474.27 11.51 475.84 10.86 477.41 10.33 478.98 9.81 480.68 9.54 482.38 9.15 484.08 9.03 485.78 8.89 487.48 8.76 489.31 8.89 491.01 9.03 492.72 9.15 494.28 9.54 495.98 9.81 497.55 10.33 499.12 10.86 500.69 11.51 502.13 12.16 503.7 12.81 505.01 13.73 506.44 14.52 509.06 16.48 511.42 18.7 513.63 21.05 515.6 23.68 516.52 25.11 517.3 26.55 518.09 27.99 518.74 29.43 519.26 31 519.92 32.57 520.31 34.14 520.7 35.84 520.96 37.53 521.23 39.23 521.36 40.93 521.36 42.63 521.36 44.46 521.23 46.17 520.96 47.86 520.7 49.43 520.31 51.14 519.92 52.71 519.26 54.27 518.74 55.84 518.09 57.41 517.3 58.85 516.52 60.29 515.6 61.59 513.63 64.22 511.42 66.57 509.06 68.8 506.44 70.77 505.01 71.67 503.7 72.46 502.13 73.25 500.69 73.9 499.12 74.42 497.55 75.07 495.98 75.46 494.28 75.85 492.72 76.13 491.01 76.39 489.31 76.53 487.48 76.53 485.78 76.53 484.08 76.39 482.38 76.13 480.68 75.85 478.98 75.46 477.41 75.07 475.84 74.42 474.27 73.9 472.83 73.25 471.39 72.46 469.95 71.67 468.51 70.77 465.9 68.8 463.55 66.57 461.32 64.22 459.37 61.59 458.57 60.29 457.66 58.85 457.01 57.41 456.35 55.84 455.7 54.27 455.18 52.71 454.65 51.14 454.26 49.43 454 47.86 453.87 46.17 453.74 44.46 453.61 42.63"></polygon><polygon class="ea423a78-064f-47bd-8682-cd17186df6b5" points="460.93 42.63 460.93 42.63 461.19 39.89 461.58 37.27 462.24 34.78 463.02 32.31 464.2 30.09 465.51 27.86 467.08 25.77 468.77 23.93 470.61 22.23 472.7 20.67 474.92 19.36 477.15 18.18 479.63 17.4 482.12 16.75 484.74 16.35 487.48 16.09 490.23 16.35 492.84 16.75 495.46 17.4 497.81 18.18 500.17 19.36 502.39 20.67 504.35 22.23 506.31 23.93 508.01 25.77 509.45 27.86 510.76 30.09 511.94 32.31 512.86 34.78 513.51 37.27 513.9 39.89 514.03 42.63 513.9 45.38 513.51 47.99 512.86 50.61 511.94 52.96 510.76 55.32 509.45 57.54 508.01 59.51 506.31 61.48 504.35 63.17 502.39 64.61 500.17 65.92 497.81 67.08 495.46 68.02 492.84 68.67 490.23 69.05 487.48 69.18 484.74 69.05 482.12 68.67 479.63 68.02 477.15 67.08 474.92 65.92 472.7 64.61 470.61 63.17 468.77 61.48 467.08 59.51 465.51 57.54 464.2 55.32 463.02 52.96 462.24 50.61 461.58 47.99 461.19 45.38 460.93 42.63"></polygon><polygon class="b6a08244-b9ec-4465-9907-1d9962363ea2" points="468.91 42.63 468.91 42.63 469.04 40.8 469.3 38.97 469.69 37.14 470.34 35.44 471.13 33.74 472.05 32.31 473.09 30.87 474.4 29.56 475.71 28.25 477.15 27.2 478.59 26.29 480.28 25.51 481.98 24.85 483.81 24.45 485.65 24.19 487.48 24.07 489.44 24.19 491.27 24.45 493.11 24.85 494.81 25.51 496.38 26.29 497.94 27.2 499.38 28.25 500.69 29.56 501.87 30.87 502.92 32.31 503.83 33.74 504.61 35.44 505.27 37.14 505.79 38.97 506.05 40.8 506.18 42.63 506.05 44.6 505.79 46.43 505.27 48.26 504.61 49.96 503.83 51.53 502.92 53.1 501.87 54.54 500.69 55.84 499.38 57.03 497.94 58.07 496.38 58.98 494.81 59.77 493.11 60.42 491.27 60.95 489.44 61.21 487.48 61.34 485.65 61.21 483.81 60.95 481.98 60.42 480.28 59.77 478.59 58.98 477.15 58.07 475.71 57.03 474.4 55.84 473.09 54.54 472.05 53.1 471.13 51.53 470.34 49.96 469.69 48.26 469.3 46.43 469.04 44.6 468.91 42.63"></polygon><polygon class="b2e1effd-f311-43bd-a210-88c83460ea52" points="475.58 42.63 475.58 42.63 475.71 41.46 475.84 40.28 476.1 39.1 476.63 38.06 477.01 37 477.67 35.97 478.33 35.05 479.11 34.26 479.89 33.48 480.81 32.83 481.86 32.17 482.91 31.78 483.95 31.25 485.12 31 486.3 30.87 487.48 30.73 488.79 30.87 489.97 31 491.01 31.25 492.19 31.78 493.23 32.17 494.15 32.83 495.06 33.48 495.85 34.26 496.64 35.05 497.42 35.97 497.94 37 498.46 38.06 498.86 39.1 499.12 40.28 499.38 41.46 499.38 42.63 499.38 43.94 499.12 45.13 498.86 46.17 498.46 47.34 497.94 48.39 497.42 49.3 496.64 50.21 495.85 51 495.06 51.79 494.15 52.57 493.23 53.1 492.19 53.62 491.01 54.02 489.97 54.27 488.79 54.54 487.48 54.54 486.3 54.54 485.12 54.27 483.95 54.02 482.91 53.62 481.86 53.1 480.81 52.57 479.89 51.79 479.11 51 478.33 50.21 477.67 49.3 477.01 48.39 476.63 47.34 476.1 46.17 475.84 45.13 475.71 43.94 475.58 42.63"></polygon><polygon class="fb736342-a22b-44ea-9ec3-6b3e7286bd6c" points="487.48 42.5 517.56 12.56 539.01 12.56 487.48 42.5"></polygon><polygon class="b2e1effd-f311-43bd-a210-88c83460ea52" points="51.67 69.05 55.21 56.06 16.34 56.06 13.83 69.05 51.67 69.05"></polygon></svg>